PathFileType  4	(X/Y/Z) C:\Users\antoi\Documents\MyRepositories\mobilecap\ResultsAnalysis
DataRate	CameraRate	NumFrames	NumMarkers	Units	OrigDataRate	OrigDataStartFrame	OrigNumFrames
100.0	100.0	4	51	mm	100.0	113	150
Frame#	Time	r_knee			r_shank_antsup			r_ankle			r_calc			r_5meta			r_toe			L_knee			L_shank_antsup			L_ankle			L_calc			L_5meta			L_toe			r_sh2			r_sh3			r_sh4			L_sh2			L_sh3			r_thigh1			r_thigh2			r_thigh3			r_thigh4			r_thigh5			L_thigh1			L_thigh2			L_thigh3			L_thigh4			r.ASIS			r.PSIS			L.ASIS			L.PSIS			C7			R_Shoulder			L_Shoulder			R_Sternum			L_Sternum			R_humerus			R_elbow_med			R_elbow_lat			R_forearm			R_wrist_radius			R_wrist_ulna			L_humerus			L_elbow_med			L_elbow_lat			L_forearm			L_wrist_radius			L_wrist_ulna			R_HJC			L_HJC			R_HJC_reg			L_HJC_reg			
		X1	Y1	Z1	X2	Y2	Z2	X3	Y3	Z3	X4	Y4	Z4	X5	Y5	Z5	X6	Y6	Z6	X7	Y7	Z7	X8	Y8	Z8	X9	Y9	Z9	X10	Y10	Z10	X11	Y11	Z11	X12	Y12	Z12	X13	Y13	Z13	X14	Y14	Z14	X15	Y15	Z15	X16	Y16	Z16	X17	Y17	Z17	X18	Y18	Z18	X19	Y19	Z19	X20	Y20	Z20	X21	Y21	Z21	X22	Y22	Z22	X23	Y23	Z23	X24	Y24	Z24	X25	Y25	Z25	X26	Y26	Z26	X27	Y27	Z27	X28	Y28	Z28	X29	Y29	Z29	X30	Y30	Z30	X31	Y31	Z31	X32	Y32	Z32	X33	Y33	Z33	X34	Y34	Z34	X35	Y35	Z35	X36	Y36	Z36	X37	Y37	Z37	X38	Y38	Z38	X39	Y39	Z39	X40	Y40	Z40	X41	Y41	Z41	X42	Y42	Z42	X43	Y43	Z43	X44	Y44	Z44	X45	Y45	Z45	X46	Y46	Z46	X47	Y47	Z47	X48	Y48	Z48	X49	Y49	Z49	X50	Y50	Z50	X51	Y51	Z51	

113	1.12000000	1158.11768	485.79075	-110.16714	1162.91985	416.10926	-82.73435	1166.40565	107.66937	-123.07173	1119.29444	63.48980	-181.10580	1264.52817	65.34199	-71.57669	1317.54026	97.81176	-110.59784	924.73977	463.52216	-417.31418	937.26810	398.47132	-421.81556	847.75870	98.15022	-401.52358	771.19664	67.75262	-360.28197	934.39160	39.56859	-423.71181	985.48007	60.38163	-367.24668	1165.63329	303.31238	-80.00149	1094.18111	412.15510	-115.05668	1092.80874	296.88536	-118.73455	850.63760	421.89165	-435.34722	831.48024	301.82096	-439.19135	1094.63204	793.05839	-130.51888	1148.69997	695.17003	-113.66438	1109.70341	656.56652	-73.03798	1002.72761	754.77227	-79.31682	1051.98922	648.39392	-80.45857	1054.74839	732.33696	-438.91345	1029.86831	594.87792	-431.07287	941.88374	750.43509	-461.46246	922.51057	610.72871	-439.82210	1059.45066	912.95994	-145.90087	884.68398	919.26997	-236.24491	1086.02910	898.61991	-403.59800	892.79165	917.94122	-342.53706	977.33882	1388.61219	-328.75752	1005.49201	1345.89242	-162.43900	1056.52064	1311.23773	-474.40177	1080.06603	1297.64859	-285.11848	1085.56418	1292.54523	-328.93003	978.68199	1121.48816	-51.36834	931.70841	1013.57308	-91.52956	944.64953	1042.26132	-25.44193	1004.94193	938.37312	6.08748	1040.45830	827.70587	23.23818	999.04505	815.66596	34.40079	1103.42428	1181.74190	-504.57625	1049.92942	964.93232	-491.00597	1087.75291	976.57505	-538.81755	1161.57685	895.11313	-521.21654	1201.41200	779.21016	-489.20426	1180.11027	761.53506	-516.18418	999.11852	833.70694	-176.58244	1020.66213	827.56109	-375.62203	1007.94081	820.46461	-185.42537	1020.96268	818.32973	-356.16432	
114	1.13000000	1167.40865	483.46810	-110.93539	1175.87461	414.56288	-83.30588	1194.38568	106.27524	-121.03171	1148.62770	59.16332	-177.79619	1295.09254	69.16346	-70.68873	1346.09917	103.89748	-110.80951	930.16262	463.12682	-417.18201	941.87665	397.90813	-421.69611	848.22488	98.83077	-401.34772	771.57473	68.62417	-360.12648	934.44289	39.59240	-423.66422	985.73438	60.11281	-367.18880	1184.22471	302.17797	-79.69978	1107.01463	406.83849	-114.73617	1111.07828	291.56087	-117.84011	855.52594	422.40612	-435.20871	834.85996	302.72906	-438.93317	1104.96794	790.87572	-129.47600	1158.10229	692.35716	-113.04574	1118.46216	653.71564	-73.08866	1012.34098	752.87255	-79.33913	1060.67280	646.05153	-81.11210	1063.29330	730.49651	-438.53038	1036.84411	593.43907	-430.35315	950.62862	749.85442	-461.57561	929.64072	610.40323	-439.59058	1070.28487	911.61716	-145.31264	895.24552	917.82019	-236.12212	1096.11786	896.76228	-403.24827	903.18733	916.70114	-342.52219	987.12977	1387.40644	-325.62401	1014.58301	1343.22969	-159.36917	1067.23681	1311.50985	-471.65592	1090.05829	1296.40364	-282.18966	1095.61949	1291.61868	-326.08820	987.73858	1117.75339	-50.42452	941.54031	1009.92761	-91.63835	953.68919	1038.27224	-25.28224	1013.27488	934.22149	6.77391	1048.38233	823.46470	24.14467	1006.64331	811.50568	34.47214	1114.46211	1182.19633	-502.56399	1061.51301	965.18787	-489.74667	1099.34605	977.17797	-537.36393	1173.39051	895.73083	-519.70126	1213.32188	779.80617	-487.70512	1192.74443	762.40627	-514.87673	1009.51313	832.35077	-176.21151	1030.95303	825.89485	-375.25533	1018.66861	818.54072	-184.94823	1031.42375	816.74231	-355.83550	
115	1.14000000	1176.58643	481.00883	-111.53221	1188.73909	413.14952	-83.75541	1221.45016	105.67319	-118.85495	1176.87697	55.75116	-174.08929	1324.64077	73.79372	-70.02906	1373.33911	110.40939	-111.51737	936.07351	462.63565	-417.06419	946.95856	397.21995	-421.56444	848.76285	99.59136	-401.18952	771.99430	69.62415	-359.96998	934.51642	39.62513	-423.63562	985.97556	59.81186	-367.11146	1202.48546	301.42334	-79.28757	1119.91556	401.82062	-114.07938	1129.05715	286.75944	-116.57991	860.93677	422.88604	-435.08364	838.62780	303.70361	-438.68225	1115.60458	788.46760	-128.40327	1167.61845	689.23608	-112.38209	1127.31696	650.69459	-72.99804	1022.24428	750.96667	-79.22338	1069.46845	643.64871	-81.53059	1071.91957	728.71158	-438.22130	1044.10861	592.02605	-429.75324	959.47084	749.18137	-461.59776	937.01546	609.95579	-439.40884	1081.35671	910.12174	-144.77617	905.98276	916.35013	-235.69048	1106.20680	894.93306	-402.90776	913.60872	915.49891	-342.21569	996.98285	1386.14878	-322.34596	1023.77988	1340.48081	-156.21350	1077.97440	1311.70228	-468.77702	1100.19624	1295.12882	-279.16692	1105.74995	1290.63884	-323.15549	996.97136	1113.94248	-49.42374	951.52305	1006.22720	-91.67048	962.92075	1034.24421	-25.05151	1021.81904	930.00526	7.42978	1056.48704	819.10682	24.98964	1014.46569	807.22728	34.44111	1125.53112	1182.57029	-500.38025	1073.02599	965.38294	-488.29289	1110.82798	977.67127	-535.77837	1185.03184	896.21971	-518.14270	1225.09584	780.24834	-486.31678	1205.12417	763.11880	-513.56055	1020.13185	830.88597	-175.78708	1041.20285	824.25774	-374.86594	1029.60404	816.55456	-184.48655	1041.84808	815.18636	-355.48989	
116	1.15000000	1185.78356	478.48858	-111.91960	1201.59890	411.89277	-84.07054	1247.42022	105.74213	-116.62369	1203.86053	53.15705	-170.11965	1352.95354	79.02735	-69.64645	1399.11290	117.11452	-112.70553	942.48984	462.05563	-416.95367	952.51019	396.41588	-421.41807	849.40717	100.45103	-401.03313	772.47318	70.79675	-359.80178	934.62593	39.66624	-423.61463	986.22383	59.47768	-367.02629	1220.42670	301.03317	-78.77266	1132.91640	397.19363	-113.01628	1146.74967	282.52809	-114.86970	866.87766	423.34805	-434.96189	842.78244	304.71904	-438.44112	1126.57787	785.90962	-127.38854	1177.31367	685.90360	-111.76501	1136.42082	647.62188	-72.77242	1032.53344	749.11725	-78.93966	1078.51348	641.27179	-81.65833	1080.64226	727.01359	-438.01050	1051.68323	590.64827	-429.32769	968.39455	748.43495	-461.51149	944.66502	609.39677	-439.27158	1092.67414	908.49572	-144.33645	916.88871	914.87045	-234.92810	1116.31695	893.18914	-402.61496	924.04879	914.33637	-341.57107	1006.90911	1384.84928	-318.91776	1033.11049	1337.66378	-152.97853	1088.71130	1311.83631	-465.76450	1110.45605	1293.81582	-276.06271	1115.96331	1289.61798	-320.13915	1006.38042	1110.09244	-48.35059	961.66794	1002.50401	-91.62921	972.33085	1030.20067	-24.75314	1030.55749	925.74610	8.05652	1064.77881	814.67419	25.76787	1022.51184	802.86534	34.30616	1136.63201	1182.88871	-498.00782	1084.45587	965.54012	-486.65563	1122.20503	978.09421	-534.04906	1196.49521	896.60884	-516.53392	1236.66806	780.56087	-485.00564	1217.16346	763.67160	-512.27384	1031.01216	829.32916	-175.32429	1051.41619	822.68976	-374.47112	1040.75864	814.55346	-184.07853	1052.24943	813.69467	-355.15993	
